# xmcd
#
# Track frame offsets: 
#        150
#        16796
#        33234
#        73431
#
# Disc length: 1479 seconds
#
# Revision: 0
# Processed by: cddbd v1.5.2PL0 Copyright (c) Steve Scherf et al.
# Submitted via: ExactAudioCopy v1.0b3
#
DISCID=2d05c504
DTITLE=Scotty Feat. M.C. Sherlock - Insomnia 2006
DYEAR=1900
DGENRE=
TTITLE0=Insomnia 2006 (No Sleep Trance Mix Edit)
TTITLE1=Insomnia 2006 (Belmond and Parker Clubhouse Edit)
TTITLE2=Insomnia 2006 (No Sleep Trance Mix)
TTITLE3=Insomnia 2006 (Belmond and Parker Clubhouse Mix)
EXTD=
EXTT0=
EXTT1=
EXTT2=
EXTT3=
PLAYORDER=
